<svg width="2811" height="1986" viewBox="0 0 2811 1986" fill="none" xmlns="http://www.w3.org/2000/svg">
<g clip-path="url(#clip0_15_394)">
<path d="M1372 963L1401.18 934.654C1404.91 931.028 1409.91 929 1415.11 929L1647.72 929C1653.02 929 1658.11 926.893 1661.86 923.142L1715.14 869.858C1718.89 866.107 1723.98 864 1729.28 864L2151 864C2162.05 864 2171 855.046 2171 844L2171 490.284C2171 484.98 2168.89 479.893 2165.14 476.142L2128 439" stroke="#9A3488" stroke-width="30" stroke-linecap="round"/>
<path d="M2308 1301L2075.83 1067.85C2072.1 1064.1 2070 1059.03 2070 1053.74L2070 929.284C2070 923.98 2067.89 918.893 2064.14 915.142L1998.86 849.858C1995.11 846.107 1993 841.02 1993 835.716L1993 598.284C1993 592.98 1990.89 587.893 1987.14 584.142L1934.86 531.858C1931.11 528.107 1926.02 526 1920.72 526L1516.28 526C1510.98 526 1505.89 523.893 1502.14 520.142L1477.86 495.858C1474.11 492.107 1469.02 490 1463.72 490L1080 490C1068.95 490 1060 498.954 1060 510L1060 915.716C1060 921.02 1057.89 926.107 1054.14 929.858L938.858 1045.14C935.107 1048.89 933 1053.98 933 1059.28L933 1261" stroke="#179859" stroke-width="30" stroke-linecap="round"/>
<path d="M1798 1390C1789.72 1390 1783 1396.72 1783 1405C1783 1413.28 1789.72 1420 1798 1420L1798 1390ZM2118.86 1399.14L2129.46 1409.75L2118.86 1399.14ZM1798 1420L2104.72 1420L2104.72 1390L1798 1390L1798 1420ZM2129.46 1409.75L2320.61 1218.61L2299.39 1197.39L2108.25 1388.54L2129.46 1409.75ZM2104.72 1420C2114 1420 2122.9 1416.31 2129.46 1409.75L2108.25 1388.54C2107.31 1389.47 2106.04 1390 2104.72 1390L2104.72 1420Z" fill="#0471B9"/>
<path d="M2167 402L2352.14 587.142C2355.89 590.893 2358 595.98 2358 601.284L2358 1151.72C2358 1157.02 2355.89 1162.11 2352.14 1165.86L2309.86 1208.14C2306.11 1211.89 2304 1216.98 2304 1222.28L2304 1288.72C2304 1294.02 2306.11 1299.11 2309.86 1302.86L2352.14 1345.14C2355.89 1348.89 2358 1353.98 2358 1359.28L2358 1901" stroke="#2D2B73" stroke-width="30" stroke-linecap="round"/>
<path d="M1371 68L1597.72 68C1603.02 68 1608.11 70.1071 1611.86 73.8579L1792.14 254.142C1795.89 257.893 1798 262.98 1798 268.284L1798 752.5C1798 763.546 1806.95 772.5 1818 772.5L2452 772.5" stroke="#6B2C15" stroke-width="30" stroke-linecap="round"/>
<path d="M1898 95V436C1898 447.046 1889.05 456 1878 456H1722C1710.95 456 1702 464.954 1702 476V811.716C1702 817.02 1704.11 822.107 1707.86 825.858L1792.14 910.142C1795.89 913.893 1798 918.98 1798 924.284V1741" stroke="#FAB515" stroke-width="30" stroke-linecap="round"/>
<path fill-rule="evenodd" clip-rule="evenodd" d="M1929.89 617C1931.74 617 1933.52 616.263 1934.84 614.95L2212.95 336.837C2219.89 329.898 2229.3 326 2239.11 326L2491 325.998C2499.28 325.998 2506 332.714 2506 340.998C2506 349.283 2499.28 355.998 2491 355.998L2239.11 356C2237.26 356 2235.48 356.737 2234.16 358.05L1956.05 636.163C1949.11 643.102 1939.7 647 1929.89 647L1182 647C1161.57 647 1145 630.435 1145 610L1145 490C1145 481.716 1151.72 475 1160 475C1168.28 475 1175 481.716 1175 490L1175 610C1175 613.866 1178.13 617 1182 617L1929.89 617Z" fill="#D60D27"/>
<path d="M705.892 1516.94H839.798V1466.93H705.977L705.807 1416.87H852.26V1366.85H698.457C665.316 1366.85 655.806 1383.31 655.806 1408.61V1617.1H705.807H856.195V1567.02H705.807L705.892 1516.94ZM1187.91 1485.92L1188.03 1416.87L1273.58 1416.83C1298.72 1416.83 1311.01 1431.55 1311.01 1450.28C1311.01 1474.5 1295.71 1485.94 1273.55 1485.94L1187.91 1485.92ZM1362.17 1450.28C1362.17 1404.17 1323.18 1366.85 1267.9 1366.85H1177.66C1150.02 1366.85 1138.81 1385.54 1138.81 1408.61V1617.01H1188.91V1533.69H1240.12L1301.26 1617.01H1367.99L1298.18 1529.79C1338.64 1519.06 1362.17 1487.54 1362.17 1450.28ZM546.499 1367.13H538.629C516.206 1367.13 500.298 1376.71 490.804 1396.34L421.953 1538.79L353.108 1396.34C343.649 1376.77 328.935 1367.13 303.692 1367.13H296.823C271.731 1367.13 261 1385.22 261 1404.45V1617.01H313.688V1428.05L375.004 1556.36C386.133 1579.58 396.403 1586.5 419.85 1586.5H421.495C446.22 1586.5 458.013 1578.9 468.283 1557.43L530.237 1428.05V1617.01H582.897V1404.45C582.897 1385.32 572.042 1367.13 546.499 1367.13ZM884.932 1408.52V1416.87H967.12V1617.1H1025.51V1416.87H1098.65V1366.85H923.837C896.14 1366.85 884.932 1385.54 884.932 1408.52ZM1548.35 1574.51C1488.5 1574.51 1461.23 1537.1 1461.23 1490.83C1461.23 1444.58 1491.25 1407.09 1548.35 1407.09C1600.75 1407.09 1632.53 1444.58 1632.53 1490.83C1632.53 1537.1 1603.06 1574.51 1548.35 1574.51ZM1549.1 1361C1460.53 1361 1401.97 1419.18 1401.97 1490.83C1401.97 1562.49 1456.29 1620.6 1549.1 1620.6C1633.99 1620.6 1691.78 1562.49 1691.78 1490.83C1691.78 1419.18 1630.38 1361 1549.1 1361Z" fill="#E32731"/>
<path d="M1336.05 1754.51C1336.05 1752.23 1335.7 1750.18 1334.99 1748.36C1334.35 1746.49 1333.12 1744.79 1331.3 1743.26C1329.48 1741.68 1326.94 1740.13 1323.65 1738.61C1320.37 1737.08 1316.12 1735.5 1310.91 1733.86C1305.11 1731.98 1299.6 1729.88 1294.39 1727.53C1289.23 1725.19 1284.66 1722.46 1280.68 1719.36C1276.75 1716.19 1273.64 1712.53 1271.36 1708.37C1269.13 1704.21 1268.02 1699.38 1268.02 1693.87C1268.02 1688.54 1269.19 1683.7 1271.54 1679.37C1273.88 1674.97 1277.16 1671.22 1281.38 1668.12C1285.6 1664.95 1290.58 1662.52 1296.32 1660.82C1302.12 1659.12 1308.48 1658.27 1315.39 1658.27C1324.83 1658.27 1333.06 1659.97 1340.09 1663.37C1347.12 1666.77 1352.57 1671.43 1356.44 1677.35C1360.36 1683.26 1362.33 1690.03 1362.33 1697.65H1336.13C1336.13 1693.9 1335.34 1690.62 1333.76 1687.8C1332.24 1684.93 1329.89 1682.68 1326.73 1681.04C1323.62 1679.4 1319.7 1678.58 1314.95 1678.58C1310.38 1678.58 1306.57 1679.28 1303.53 1680.69C1300.48 1682.03 1298.2 1683.88 1296.67 1686.22C1295.15 1688.51 1294.39 1691.09 1294.39 1693.96C1294.39 1696.12 1294.91 1698.09 1295.97 1699.85C1297.08 1701.6 1298.72 1703.24 1300.89 1704.77C1303.06 1706.29 1305.72 1707.73 1308.89 1709.07C1312.05 1710.42 1315.71 1711.74 1319.88 1713.03C1326.85 1715.14 1332.97 1717.51 1338.24 1720.15C1343.58 1722.79 1348.03 1725.74 1351.6 1729.03C1355.18 1732.31 1357.87 1736.03 1359.69 1740.19C1361.51 1744.35 1362.41 1749.06 1362.41 1754.34C1362.41 1759.9 1361.33 1764.88 1359.16 1769.28C1356.99 1773.67 1353.86 1777.39 1349.76 1780.44C1345.66 1783.49 1340.76 1785.8 1335.08 1787.38C1329.4 1788.97 1323.04 1789.76 1316.01 1789.76C1309.68 1789.76 1303.44 1788.94 1297.29 1787.3C1291.13 1785.6 1285.54 1783.05 1280.5 1779.65C1275.52 1776.25 1271.54 1771.92 1268.55 1766.64C1265.56 1761.37 1264.06 1755.13 1264.06 1747.92H1290.52C1290.52 1751.91 1291.13 1755.28 1292.37 1758.03C1293.6 1760.78 1295.32 1763.01 1297.55 1764.71C1299.84 1766.41 1302.53 1767.64 1305.64 1768.4C1308.8 1769.16 1312.26 1769.54 1316.01 1769.54C1320.58 1769.54 1324.33 1768.9 1327.26 1767.61C1330.25 1766.32 1332.44 1764.53 1333.85 1762.25C1335.31 1759.96 1336.05 1757.38 1336.05 1754.51ZM1425.34 1692.9V1710.83H1369.97V1692.9H1425.34ZM1383.68 1669.44H1409V1759.35C1409 1762.1 1409.35 1764.21 1410.05 1765.68C1410.81 1767.14 1411.93 1768.17 1413.39 1768.75C1414.86 1769.28 1416.7 1769.54 1418.93 1769.54C1420.51 1769.54 1421.92 1769.48 1423.15 1769.37C1424.44 1769.19 1425.52 1769.02 1426.4 1768.84L1426.49 1787.47C1424.32 1788.18 1421.97 1788.73 1419.46 1789.14C1416.94 1789.55 1414.15 1789.76 1411.11 1789.76C1405.54 1789.76 1400.68 1788.85 1396.52 1787.03C1392.41 1785.16 1389.25 1782.17 1387.02 1778.07C1384.8 1773.97 1383.68 1768.58 1383.68 1761.9V1669.44ZM1433.43 1741.42V1739.57C1433.43 1732.6 1434.43 1726.18 1436.42 1720.32C1438.41 1714.41 1441.31 1709.28 1445.12 1704.94C1448.93 1700.61 1453.62 1697.24 1459.18 1694.84C1464.75 1692.38 1471.13 1691.14 1478.34 1691.14C1485.55 1691.14 1491.96 1692.38 1497.59 1694.84C1503.21 1697.24 1507.93 1700.61 1511.74 1704.94C1515.61 1709.28 1518.54 1714.41 1520.53 1720.32C1522.52 1726.18 1523.52 1732.6 1523.52 1739.57V1741.42C1523.52 1748.33 1522.52 1754.75 1520.53 1760.67C1518.54 1766.53 1515.61 1771.65 1511.74 1776.05C1507.93 1780.38 1503.24 1783.75 1497.68 1786.15C1492.11 1788.56 1485.72 1789.76 1478.52 1789.76C1471.31 1789.76 1464.89 1788.56 1459.27 1786.15C1453.7 1783.75 1448.99 1780.38 1445.12 1776.05C1441.31 1771.65 1438.41 1766.53 1436.42 1760.67C1434.43 1754.75 1433.43 1748.33 1433.43 1741.42ZM1458.74 1739.57V1741.42C1458.74 1745.4 1459.09 1749.12 1459.8 1752.58C1460.5 1756.04 1461.61 1759.08 1463.14 1761.72C1464.72 1764.3 1466.77 1766.32 1469.29 1767.79C1471.81 1769.25 1474.88 1769.98 1478.52 1769.98C1482.03 1769.98 1485.05 1769.25 1487.57 1767.79C1490.09 1766.32 1492.11 1764.3 1493.63 1761.72C1495.16 1759.08 1496.27 1756.04 1496.97 1752.58C1497.74 1749.12 1498.12 1745.4 1498.12 1741.42V1739.57C1498.12 1735.71 1497.74 1732.07 1496.97 1728.67C1496.27 1725.22 1495.13 1722.17 1493.55 1719.53C1492.02 1716.84 1490 1714.73 1487.48 1713.21C1484.96 1711.68 1481.92 1710.92 1478.34 1710.92C1474.77 1710.92 1471.72 1711.68 1469.2 1713.21C1466.74 1714.73 1464.72 1716.84 1463.14 1719.53C1461.61 1722.17 1460.5 1725.22 1459.8 1728.67C1459.09 1732.07 1458.74 1735.71 1458.74 1739.57ZM1564.39 1713.64V1788H1539.07V1692.9H1562.89L1564.39 1713.64ZM1593.04 1692.29L1592.6 1715.75C1591.37 1715.58 1589.88 1715.43 1588.12 1715.31C1586.42 1715.14 1584.87 1715.05 1583.46 1715.05C1579.88 1715.05 1576.78 1715.52 1574.14 1716.46C1571.56 1717.34 1569.4 1718.65 1567.64 1720.41C1565.94 1722.17 1564.65 1724.31 1563.77 1726.83C1562.95 1729.35 1562.48 1732.22 1562.37 1735.44L1557.27 1733.86C1557.27 1727.71 1557.88 1722.05 1559.11 1716.9C1560.34 1711.68 1562.13 1707.14 1564.47 1703.27C1566.88 1699.41 1569.81 1696.42 1573.26 1694.31C1576.72 1692.2 1580.68 1691.14 1585.13 1691.14C1586.54 1691.14 1587.97 1691.26 1589.44 1691.5C1590.9 1691.67 1592.1 1691.94 1593.04 1692.29ZM1634.79 1777.28L1660.01 1692.9H1687.17L1648.94 1802.33C1648.12 1804.73 1647 1807.31 1645.6 1810.06C1644.25 1812.81 1642.4 1815.42 1640.06 1817.88C1637.78 1820.4 1634.88 1822.45 1631.36 1824.04C1627.9 1825.62 1623.65 1826.41 1618.62 1826.41C1616.21 1826.41 1614.25 1826.26 1612.73 1825.97C1611.2 1825.68 1609.39 1825.27 1607.28 1824.74V1806.19C1607.92 1806.19 1608.6 1806.19 1609.3 1806.19C1610 1806.25 1610.68 1806.28 1611.32 1806.28C1614.66 1806.28 1617.38 1805.9 1619.49 1805.14C1621.6 1804.38 1623.3 1803.21 1624.59 1801.62C1625.88 1800.1 1626.91 1798.11 1627.67 1795.65L1634.79 1777.28ZM1624.24 1692.9L1644.89 1761.81L1648.5 1788.62L1631.27 1790.46L1597.08 1692.9H1624.24Z" fill="#888A8C"/>
</g>
<defs>
<clipPath id="clip0_15_394">
<rect width="2811" height="1986" fill="white"/>
</clipPath>
</defs>
</svg>
